<?xml version="1.0" standalone="no"?><!DOCTYPE svg PUBLIC "-//W3C//DTD SVG 1.1//EN" "http://www.w3.org/Graphics/SVG/1.1/DTD/svg11.dtd"><svg class="icon" width="200px" height="200.00px" viewBox="0 0 1024 1024" version="1.1" xmlns="http://www.w3.org/2000/svg"><path fill="#333333" d="M303.379239 344.450421l636.583354 0c46.338226 0 84.037406-37.699181 84.037406-84.037406 0-46.338226-37.699181-84.037406-84.037406-84.037406l-636.583354 0c-46.338226 0-84.037406 37.699181-84.037406 84.037406C219.341833 306.75124 257.041013 344.450421 303.379239 344.450421zM303.379239 218.394311l636.583354 0c23.169113 0 42.018703 18.84959 42.018703 42.018703 0 23.169113-18.84959 42.018703-42.018703 42.018703l-636.583354 0c-23.169113 0-42.018703-18.84959-42.018703-42.018703C261.360536 237.243901 280.210126 218.394311 303.379239 218.394311zM939.962594 428.487827l-636.583354 0c-46.338226 0-84.037406 37.699181-84.037406 84.037406 0 46.338226 37.699181 84.037406 84.037406 84.037406l636.583354 0c46.338226 0 84.037406-37.699181 84.037406-84.037406C1024 466.187008 986.300819 428.487827 939.962594 428.487827zM939.962594 554.543937l-636.583354 0c-23.169113 0-42.018703-18.84959-42.018703-42.018703 0-23.169113 18.84959-42.018703 42.018703-42.018703l636.583354 0c23.169113 0 42.018703 18.84959 42.018703 42.018703S963.131706 554.543937 939.962594 554.543937zM939.962594 680.600047l-636.583354 0c-46.338226 0-84.037406 37.699181-84.037406 84.037406 0 46.338226 37.699181 84.037406 84.037406 84.037406l636.583354 0c46.338226 0 84.037406-37.699181 84.037406-84.037406C1024 718.299227 986.300819 680.600047 939.962594 680.600047zM939.962594 806.656157l-636.583354 0c-23.169113 0-42.018703-18.84959-42.018703-42.018703s18.84959-42.018703 42.018703-42.018703l636.583354 0c23.169113 0 42.018703 18.84959 42.018703 42.018703S963.131706 806.656157 939.962594 806.656157zM41.541791 252.183651l25.65662-25.65662 0 116.872922c0 11.603465 9.405887 21.009352 21.009352 21.009352s21.009352-9.405887 21.007251-21.009352L109.215013 175.806254c0-8.498283-5.117878-16.158292-12.969073-19.41054-7.846993-3.252248-16.887317-1.453847-22.895991 4.552726L11.828265 222.470125c-8.204152 8.206253-8.206253 21.509374 0 29.713526C20.034518 260.387803 33.337639 260.387803 41.541791 252.183651zM124.799751 568.200016 81.127611 568.200016l40.901006-40.903107c18.971445-18.969344 24.694392-46.376043 14.935548-71.520035-9.559255-24.631364-31.757736-40.661499-57.941691-41.842225-1.138707-0.050422-2.283717-0.075634-3.435029-0.075634C33.909094 413.859016 0 447.768109 0 489.446461c0 11.603465 9.405887 21.009352 21.009352 21.009352s21.009352-9.405887 21.009352-21.009352c0-18.51134 15.059503-33.568742 33.568742-33.568742 0.523133 0 1.044165 0.010505 1.552591 0.033615 13.981724 0.630281 19.341209 11.691704 20.652193 15.065806 1.386617 3.573691 5.088465 16.046943-5.475037 26.608344l-76.768171 76.768171c-6.006574 6.008675-7.804974 15.046898-4.552726 22.895991 3.252248 7.849094 10.914358 12.969073 19.41054 12.969073l94.392916 0c11.603465 0 21.009352-9.405887 21.009352-21.009352S136.403215 568.200016 124.799751 568.200016zM77.352231 659.590695c-34.888129 0-63.271763 28.383634-63.271763 63.271763 0 11.603465 9.405887 21.009352 21.009352 21.009352s21.009352-9.405887 21.009352-21.009352c0-11.719016 9.534044-21.25306 21.25306-21.25306s21.25306 9.534044 21.25306 21.25306c0 11.508923-9.334455 20.526137-21.25306 20.526137-11.603465 0-21.009352 9.405887-21.009352 21.009352s9.405887 21.009352 21.009352 21.009352c11.918605 0 21.25306 9.017214 21.25306 20.526137 0 11.719016-9.534044 21.25306-21.25306 21.25306s-21.25306-9.534044-21.25306-21.25306c0-11.603465-9.405887-21.009352-21.009352-21.009352s-21.009352 9.405887-21.009352 21.009352c0 34.888129 28.383634 63.271763 63.271763 63.271763 34.888129 0 63.271763-28.383634 63.271763-63.271763 0-15.927189-6.054895-30.482468-16.004924-41.535488 9.95213-11.055121 16.004924-25.6104 16.004924-41.535488C140.623994 687.974329 112.24036 659.590695 77.352231 659.590695zM423.132544 276.170028l359.259913 0c11.601364 0 21.009352-9.405887 21.009352-21.009352s-9.407988-21.009352-21.009352-21.009352l-359.259913 0c-11.603465 0-21.009352 9.405887-21.009352 21.009352S411.529079 276.170028 423.132544 276.170028zM301.278304 276.170028l37.816833 0c11.603465 0 21.009352-9.405887 21.009352-21.009352s-9.405887-21.009352-21.009352-21.009352l-37.816833 0c-11.603465 0-21.009352 9.405887-21.009352 21.009352S289.674839 276.170028 301.278304 276.170028z" /></svg>