<?xml version="1.0" standalone="no"?><!DOCTYPE svg PUBLIC "-//W3C//DTD SVG 1.1//EN" "http://www.w3.org/Graphics/SVG/1.1/DTD/svg11.dtd"><svg t="1661056524851" class="icon" viewBox="0 0 1024 1024" version="1.1" xmlns="http://www.w3.org/2000/svg" p-id="2416" xmlns:xlink="http://www.w3.org/1999/xlink" width="200" height="200"><defs><style type="text/css">@font-face { font-family: feedback-iconfont; src: url("//at.alicdn.com/t/font_1031158_u69w8yhxdu.woff2?t=1630033759944") format("woff2"), url("//at.alicdn.com/t/font_1031158_u69w8yhxdu.woff?t=1630033759944") format("woff"), url("//at.alicdn.com/t/font_1031158_u69w8yhxdu.ttf?t=1630033759944") format("truetype"); }
</style></defs><path d="M260.266667 938.666667c45.5168-1.1264 84.48-17.629867 116.906666-49.493334 32.989867-33.570133 49.493333-73.9328 49.493334-121.173333s-16.503467-87.330133-49.493334-120.32c-32.426667-32.426667-71.406933-49.220267-116.906666-50.346667H768c47.240533 0 87.313067 16.503467 120.32 49.493334C921.9072 680.3968 938.666667 720.759467 938.666667 768s-16.759467 87.330133-50.346667 120.32C855.313067 921.9072 815.240533 938.666667 768 938.666667H260.266667z" p-id="2417"></path><path d="M260.266667 955.733333H256c-51.694933 0-96.529067-18.619733-133.239467-55.3472C86.596267 864.238933 68.266667 819.694933 68.266667 768c0-51.6096 18.295467-96.4096 54.391466-133.137067C159.5904 598.562133 204.373333 580.266667 256 580.266667h512c51.677867 0 96.221867 18.3296 132.386133 54.493866C937.1136 671.470933 955.733333 716.305067 955.733333 768c0 51.7632-18.670933 96.3584-55.4496 132.5056C864.341333 937.079467 819.746133 955.733333 768 955.733333H260.266667z m104.772266-34.133333H768c42.8544 0 78.2336-14.7968 108.151467-45.243733C906.8032 846.2336 921.6 810.871467 921.6 768c0-42.922667-14.830933-78.592-45.346133-109.1072C846.301867 628.957867 810.9056 614.4 768 614.4H364.373333c8.669867 6.229333 16.964267 13.294933 24.8832 21.213867C425.403733 671.761067 443.733333 716.305067 443.733333 768c0 51.6096-18.295467 96.4096-54.391466 133.137067-7.748267 7.611733-15.837867 14.421333-24.302934 20.462933zM256 614.4c-42.9568 0-78.677333 14.574933-109.2096 44.5952C116.992 689.339733 102.4 725.0432 102.4 768c0 42.922667 14.557867 78.318933 44.4928 108.253867C177.408 906.769067 213.0944 921.6 256 921.6h4.0448c41.3184-1.058133 75.7248-15.6672 105.1648-44.5952C395.008 846.660267 409.6 810.9568 409.6 768c0-42.922667-14.557867-78.318933-44.4928-108.253867-29.44-29.44-63.7952-44.288-105.0624-45.346133H256z m512-170.666667H256c-51.677867 0-96.512-18.619733-133.239467-55.3472C86.596267 352.238933 68.266667 307.694933 68.266667 256c0-51.6096 18.295467-96.4096 54.391466-133.137067C159.5904 86.562133 204.3904 68.266667 256 68.266667h512c51.677867 0 96.221867 18.3296 132.386133 54.493866C937.1136 159.470933 955.733333 204.305067 955.733333 256c0 51.780267-18.670933 96.3584-55.4496 132.488533C864.324267 425.079467 819.746133 443.733333 768 443.733333z m-4.0448-34.133333H768c42.8544 0 78.216533-14.7968 108.151467-45.243733C906.8032 334.2336 921.6 298.871467 921.6 256c0-42.9056-14.830933-78.592-45.346133-109.1072C846.301867 116.957867 810.9056 102.4 768 102.4h-4.0448c-41.250133 1.058133-75.6224 15.616-105.045333 44.4928C628.957867 177.408 614.4 213.0944 614.4 256s14.557867 78.318933 44.4928 108.2368c29.44 29.457067 63.812267 44.305067 105.0624 45.3632zM256 102.4c-42.9568 0-78.677333 14.592-109.2096 44.5952C116.992 177.322667 102.4 213.0432 102.4 256c0 42.9056 14.557867 78.318933 44.4928 108.253867C177.408 394.769067 213.0944 409.6 256 409.6h403.626667c-8.669867-6.229333-16.964267-13.312-24.866134-21.213867C598.596267 352.238933 580.266667 307.694933 580.266667 256c0-51.626667 18.295467-96.4096 54.408533-133.137067l0.2048-0.2048c7.645867-7.5264 15.6672-14.2848 24.029867-20.258133H256z" p-id="2418"></path></svg>