<?xml version="1.0" standalone="no"?><!DOCTYPE svg PUBLIC "-//W3C//DTD SVG 1.1//EN" "http://www.w3.org/Graphics/SVG/1.1/DTD/svg11.dtd"><svg class="icon" width="200px" height="200.00px" viewBox="0 0 1024 1024" version="1.1" xmlns="http://www.w3.org/2000/svg"><path fill="#333333" d="M969.142857 146.285714H301.714286c-5.028571 0-9.142857 4.114286-9.142857 9.142857v64c0 5.028571 4.114286 9.142857 9.142857 9.142858h667.428571c5.028571 0 9.142857-4.114286 9.142857-9.142858v-64c0-5.028571-4.114286-9.142857-9.142857-9.142857z m0 324.571429H301.714286c-5.028571 0-9.142857 4.114286-9.142857 9.142857v64c0 5.028571 4.114286 9.142857 9.142857 9.142857h667.428571c5.028571 0 9.142857-4.114286 9.142857-9.142857v-64c0-5.028571-4.114286-9.142857-9.142857-9.142857z m0 324.571428H301.714286c-5.028571 0-9.142857 4.114286-9.142857 9.142858v64c0 5.028571 4.114286 9.142857 9.142857 9.142857h667.428571c5.028571 0 9.142857-4.114286 9.142857-9.142857v-64c0-5.028571-4.114286-9.142857-9.142857-9.142858zM45.714286 187.428571a64 64 0 1 0 128 0 64 64 0 1 0-128 0z m0 324.571429a64 64 0 1 0 128 0 64 64 0 1 0-128 0z m0 324.571429a64 64 0 1 0 128 0 64 64 0 1 0-128 0z" /></svg>